<svg width="188" height="151" viewBox="0 0 188 151" fill="none" xmlns="http://www.w3.org/2000/svg">
<g id="emojione-monotone:fork-and-knife-with-plate">
<path id="Vector" d="M96.2002 110.702C121.604 110.702 142.243 95.0521 143.121 75.5C142.243 55.9478 121.604 40.2981 96.2002 40.2981C70.7996 40.2981 50.1549 55.9478 49.2883 75.5C50.1519 95.0521 70.7967 110.702 96.2002 110.702Z" fill="#0FA958"/>
<path id="Vector_2" d="M96.2031 23.5938C60.5125 23.5938 31.5752 46.8336 31.5752 75.5C31.5752 104.164 60.5154 127.406 96.2031 127.406C131.891 127.406 160.828 104.164 160.828 75.5C160.828 46.8336 131.891 23.5938 96.2031 23.5938ZM96.2002 113.25C70.2415 113.25 49.1973 96.9208 49.1973 76.7717C49.1973 76.3423 49.2707 75.9247 49.2883 75.5C49.2707 75.0753 49.1973 74.6553 49.1973 74.2283C49.1973 54.0792 70.2444 37.75 96.2002 37.75C122.159 37.75 143.2 54.0792 143.2 74.2283C143.2 74.6553 143.139 75.0753 143.124 75.5C143.141 75.9247 143.2 76.3423 143.2 76.7717C143.197 96.9208 122.159 113.25 96.2002 113.25Z" fill="#0FA958"/>
<path id="Vector_3" d="M10.2254 17.5089C10.9304 15.2887 12.3258 17.4829 12.3258 17.4829C12.3258 17.4829 12.8134 40.4633 15.9859 40.7134C19.1584 40.9634 16.7144 17.0677 20.4685 16.61C23.9583 16.1641 21.9666 41.0932 25.145 40.8408C28.3116 40.5718 28.8463 17.6009 28.8463 17.6009C28.8463 17.6009 30.2563 15.4091 30.9524 17.6127C39.5534 44.7691 32.5945 55.87 32.5945 55.87C32.5945 55.87 31.4195 58.2034 28.6289 58.2152C28.3674 58.2034 28.5643 122.711 28.5466 131.384C28.5525 135.6 12.3904 135.471 12.3992 131.273C12.4109 122.6 12.7253 58.0996 12.4726 58.1043C9.67319 58.1043 8.50113 55.7732 8.50113 55.7732C8.50113 55.7732 1.56863 44.6795 10.2254 17.5089ZM163.384 16.5156C167.02 16.5085 182.107 25.2453 182.125 57.715C182.143 68.0986 175.09 68.0963 175.101 74.5916C175.113 81.0752 175.157 132.646 175.157 132.646C175.157 132.646 167.42 136.91 161.668 132.448L161.563 17.4381C161.568 17.4405 161.548 16.5132 163.384 16.5156Z" fill="#0FA958"/>
</g>
</svg>
