<svg width="35" height="35" viewBox="0 0 35 35" fill="none" xmlns="http://www.w3.org/2000/svg">
<g id="jam:pinterest-circle">
<g id="Group">
<path id="Vector" d="M16.5594 19.8538C16.1875 21.8605 15.7354 23.7855 14.3879 24.7917C13.9738 21.7584 14.999 19.4775 15.4744 17.0582C14.6636 15.6523 15.5721 12.8202 17.2827 13.5188C19.39 14.3763 15.4598 18.7484 18.0994 19.2938C20.8527 19.8655 21.9786 14.3734 20.2694 12.5855C17.8019 10.0071 13.0842 12.5271 13.6646 16.2196C13.8061 17.1238 14.7117 17.3965 14.0263 18.6419C12.4469 18.2817 11.9759 16.9984 12.0357 15.2877C12.1334 12.4877 14.4784 10.5292 16.8321 10.2565C19.8071 9.91379 22.5984 11.3823 22.9848 14.264C23.4179 17.5161 21.6417 21.0394 18.4596 20.7857C17.5992 20.7171 17.2346 20.2752 16.5594 19.8523V19.8538Z" fill="white"/>
<path id="Vector_2" d="M17.5 29.1667C20.5942 29.1667 23.5617 27.9376 25.7496 25.7497C27.9375 23.5617 29.1667 20.5943 29.1667 17.5001C29.1667 14.4059 27.9375 11.4384 25.7496 9.2505C23.5617 7.06258 20.5942 5.83341 17.5 5.83341C14.4058 5.83341 11.4384 7.06258 9.25044 9.2505C7.06252 11.4384 5.83335 14.4059 5.83335 17.5001C5.83335 20.5943 7.06252 23.5617 9.25044 25.7497C11.4384 27.9376 14.4058 29.1667 17.5 29.1667ZM17.5 32.0834C9.44565 32.0834 2.91669 25.5545 2.91669 17.5001C2.91669 9.44571 9.44565 2.91675 17.5 2.91675C25.5544 2.91675 32.0834 9.44571 32.0834 17.5001C32.0834 25.5545 25.5544 32.0834 17.5 32.0834Z" fill="white"/>
</g>
</g>
</svg>
