<svg width="188" height="151" viewBox="0 0 188 151" fill="none" xmlns="http://www.w3.org/2000/svg">
<g id="fa6-solid:plate-wheat">
<path id="Vector" d="M71.2188 9.4375C84.0816 9.4375 94.5 19.9957 94.5 33.0312V37.75C94.5 40.3453 92.4047 42.4688 89.8438 42.4688C76.9809 42.4688 66.5625 31.9105 66.5625 18.875V14.1562C66.5625 11.5609 68.6578 9.4375 71.2188 9.4375ZM36.2969 18.875H50.2656C54.1361 18.875 57.25 22.0307 57.25 25.9531C57.25 29.8756 54.1361 33.0312 50.2656 33.0312H36.2969C32.4264 33.0312 29.3125 29.8756 29.3125 25.9531C29.3125 22.0307 32.4264 18.875 36.2969 18.875ZM26.9844 40.1094H59.5781C63.4486 40.1094 66.5625 43.265 66.5625 47.1875C66.5625 51.11 63.4486 54.2656 59.5781 54.2656H26.9844C23.1139 54.2656 20 51.11 20 47.1875C20 43.265 23.1139 40.1094 26.9844 40.1094ZM29.3125 68.4219C29.3125 64.4994 32.4264 61.3438 36.2969 61.3438H50.2656C54.1361 61.3438 57.25 64.4994 57.25 68.4219C57.25 72.3443 54.1361 75.5 50.2656 75.5H36.2969C32.4264 75.5 29.3125 72.3443 29.3125 68.4219ZM99.1562 14.1562C99.1562 11.5609 101.252 9.4375 103.812 9.4375C116.675 9.4375 127.094 19.9957 127.094 33.0312V37.75C127.094 40.3453 124.998 42.4688 122.438 42.4688C109.575 42.4688 99.1562 31.9105 99.1562 18.875V14.1562ZM136.406 9.4375C149.269 9.4375 159.688 19.9957 159.688 33.0312V37.75C159.688 40.3453 157.592 42.4688 155.031 42.4688C142.168 42.4688 131.75 31.9105 131.75 18.875V14.1562C131.75 11.5609 133.845 9.4375 136.406 9.4375ZM159.688 56.625V61.3438C159.688 74.3793 149.269 84.9375 136.406 84.9375C133.845 84.9375 131.75 82.8141 131.75 80.2188V75.5C131.75 62.4645 142.168 51.9062 155.031 51.9062C157.592 51.9062 159.688 54.0297 159.688 56.625ZM122.438 51.9062C124.998 51.9062 127.094 54.0297 127.094 56.625V61.3438C127.094 74.3793 116.675 84.9375 103.812 84.9375C101.252 84.9375 99.1562 82.8141 99.1562 80.2188V75.5C99.1562 62.4645 109.575 51.9062 122.438 51.9062ZM94.5 56.625V61.3438C94.5 74.3793 84.0816 84.9375 71.2188 84.9375C68.6578 84.9375 66.5625 82.8141 66.5625 80.2188V75.5C66.5625 62.4645 76.9809 51.9062 89.8438 51.9062C92.4047 51.9062 94.5 54.0297 94.5 56.625ZM21.0186 102.515C20.4656 98.1795 23.7832 94.375 28.0902 94.375H160.91C165.217 94.375 168.534 98.1795 168.011 102.515C166.177 117.32 155.089 128.881 141.062 131.535V132.125C141.062 137.345 136.901 141.562 131.75 141.562H57.25C52.099 141.562 47.9375 137.345 47.9375 132.125V131.535C33.9105 128.881 22.8229 117.32 21.0186 102.515Z" fill="#0FA958"/>
</g>
</svg>
