<svg width="35" height="35" viewBox="0 0 35 35" fill="none" xmlns="http://www.w3.org/2000/svg">
<g id="entypo-social:twitter-with-circle" clip-path="url(#clip0_63_68)">
<path id="Vector" d="M17.5 0.699951C8.22151 0.699951 0.700012 8.22145 0.700012 17.5C0.700012 26.7785 8.22151 34.3 17.5 34.3C26.7785 34.3 34.3 26.7785 34.3 17.5C34.3 8.22145 26.7785 0.699951 17.5 0.699951ZM24.3338 14.462C24.3408 14.6055 24.3425 14.749 24.3425 14.889C24.3425 19.264 21.0158 24.3057 14.9293 24.3057C13.1308 24.3087 11.3697 23.7922 9.85776 22.8182C10.115 22.8497 10.3793 22.862 10.647 22.862C12.1975 22.862 13.6238 22.3352 14.756 21.4462C14.066 21.4327 13.3974 21.2042 12.8435 20.7926C12.2895 20.381 11.8777 19.8069 11.6655 19.1502C12.161 19.2444 12.6715 19.2247 13.1583 19.0925C12.4093 18.941 11.7359 18.5352 11.252 17.9439C10.7681 17.3525 10.5037 16.612 10.5035 15.848V15.8077C10.9498 16.0545 11.4608 16.205 12.0033 16.2225C11.3012 15.7551 10.8041 15.0371 10.6138 14.2154C10.4235 13.3937 10.5544 12.5304 10.9795 11.802C11.8107 12.824 12.8472 13.66 14.022 14.256C15.1968 14.852 16.4837 15.1946 17.7993 15.2617C17.632 14.5517 17.704 13.8064 18.004 13.1416C18.3041 12.4768 18.8154 11.9297 19.4584 11.5854C20.1014 11.2411 20.8402 11.119 21.5598 11.2379C22.2795 11.3568 22.9397 11.7101 23.4378 12.243C24.1783 12.0964 24.8885 11.8248 25.5378 11.4397C25.2909 12.2064 24.7742 12.8575 24.0835 13.272C24.7395 13.1929 25.38 13.0166 25.984 12.7487C25.5404 13.4135 24.9815 13.9937 24.3338 14.462Z" fill="white"/>
</g>
<defs>
<clipPath id="clip0_63_68">
<rect width="35" height="35" fill="white"/>
</clipPath>
</defs>
</svg>
